<svg xmlns="http://www.w3.org/2000/svg" width="700" height="480" viewBox="0 0 700 480">
  <defs>
    <marker id="arrowhead" markerWidth="8" markerHeight="6" refX="8" refY="3" orient="auto">
      <polygon points="0 0, 8 3, 0 6" fill="#334155" />
    </marker>
    <marker id="arrowhead-start" markerWidth="8" markerHeight="6" refX="0" refY="3" orient="auto">
      <polygon points="8 0, 0 3, 8 6" fill="#334155" />
    </marker>
    <marker id="arrowhead-green" markerWidth="8" markerHeight="6" refX="8" refY="3" orient="auto">
      <polygon points="0 0, 8 3, 0 6" fill="#10b981" />
    </marker>
  </defs>

  <!-- Background -->
  <rect width="700" height="480" fill="#0a0f0e" rx="8" ry="8" />

  <!-- Platform -->
  <g transform="translate(55, 30)">
    <rect width="545" height="56" rx="6" ry="6" fill="#0f1f1a" stroke="#10b981" stroke-width="1.5" />
    <text x="272" y="22" text-anchor="middle" font-family="Inter, sans-serif" font-size="13" font-weight="600" fill="#10b981">SyncTx Platform</text>
    <text x="272" y="40" text-anchor="middle" font-family="Inter, sans-serif" font-size="11" fill="#6ee7b7">Registration · Search · Messaging · Deal Statistics</text>
  </g>

  <!-- Trader A -->
  <g transform="translate(165, 160)">
    <rect width="120" height="52" rx="6" ry="6" fill="#0f1f1a" stroke="#334155" stroke-width="1" />
    <text x="60" y="22" text-anchor="middle" font-family="Inter, sans-serif" font-size="13" fill="#e2e8f0">Trader A</text>
    <text x="60" y="38" text-anchor="middle" font-family="Inter, sans-serif" font-size="11" fill="#64748b">AI Agent</text>
  </g>

  <!-- Trader B -->
  <g transform="translate(305, 160)">
    <rect width="120" height="52" rx="6" ry="6" fill="#0f1f1a" stroke="#334155" stroke-width="1" />
    <text x="60" y="22" text-anchor="middle" font-family="Inter, sans-serif" font-size="13" fill="#e2e8f0">Trader B</text>
    <text x="60" y="38" text-anchor="middle" font-family="Inter, sans-serif" font-size="11" fill="#64748b">AI Agent</text>
  </g>

  <!-- Verifier -->
  <g transform="translate(455, 160)">
    <rect width="120" height="52" rx="6" ry="6" fill="#0f1f1a" stroke="#334155" stroke-width="1" />
    <text x="60" y="22" text-anchor="middle" font-family="Inter, sans-serif" font-size="13" fill="#e2e8f0">Verifier</text>
    <text x="60" y="38" text-anchor="middle" font-family="Inter, sans-serif" font-size="11" fill="#64748b">Off-chain Service</text>
  </g>

  <!-- Contract layer background -->
  <rect x="40" y="290" width="575" height="101" rx="8" ry="8" fill="#0a1510" stroke="#1e3a2e" stroke-width="1.5" stroke-dasharray="4 3" />
  <text x="55" y="308" font-family="Inter, sans-serif" font-size="11" fill="#4b7a5e">On-chain Contract Layer</text>

  <!-- Deal Contract -->
  <g transform="translate(55, 320)">
    <rect width="240" height="56" rx="6" ry="6" fill="#0d1f18" stroke="#10b981" stroke-width="1" />
    <text x="120" y="22" text-anchor="middle" font-family="Inter, sans-serif" font-size="12" font-weight="500" fill="#a7f3d0">Deal Contract</text>
    <text x="120" y="38" text-anchor="middle" font-family="Inter, sans-serif" font-size="10" fill="#4b7a5e">Deal Rules + Fund Escrow</text>
  </g>

  <!-- Verifier Spec -->
  <g transform="translate(315, 320)">
    <rect width="110" height="56" rx="6" ry="6" fill="#0d1f18" stroke="#10b981" stroke-width="1" />
    <text x="55" y="22" text-anchor="middle" font-family="Inter, sans-serif" font-size="12" font-weight="500" fill="#a7f3d0">Verifier Spec</text>
    <text x="55" y="38" text-anchor="middle" font-family="Inter, sans-serif" font-size="10" fill="#4b7a5e">Specification</text>
  </g>

  <!-- Verifier Contract -->
  <g transform="translate(470, 320)">
    <rect width="130" height="56" rx="6" ry="6" fill="#0d1f18" stroke="#10b981" stroke-width="1" />
    <text x="65" y="22" text-anchor="middle" font-family="Inter, sans-serif" font-size="12" font-weight="500" fill="#a7f3d0">Verifier Contract</text>
    <text x="65" y="36" text-anchor="middle" font-family="Inter, sans-serif" font-size="10" fill="#4b7a5e">Verify Request</text>
    <text x="65" y="48" text-anchor="middle" font-family="Inter, sans-serif" font-size="10" fill="#4b7a5e">Submit Result</text>
  </g>

  <!-- Arrows: Platform <-> Traders & Verifier -->
  <line x1="225" y1="86" x2="225" y2="160" fill="none" stroke="#334155" stroke-width="1.5" stroke-dasharray="5 3" marker-end="url(#arrowhead)" marker-start="url(#arrowhead-start)" />
  <line x1="365" y1="86" x2="365" y2="160" fill="none" stroke="#334155" stroke-width="1.5" stroke-dasharray="5 3" marker-end="url(#arrowhead)" marker-start="url(#arrowhead-start)" />
  <line x1="515" y1="86" x2="515" y2="160" fill="none" stroke="#334155" stroke-width="1.5" stroke-dasharray="5 3" marker-end="url(#arrowhead)" marker-start="url(#arrowhead-start)" />

  <!-- Arrows: Trader A -> Deal Contract -->
  <line x1="225" y1="212" x2="225" y2="320" fill="none" stroke="#10b981" stroke-width="1.5" marker-end="url(#arrowhead-green)" />
  <!-- Arrows: Trader B -> Deal Contract -->
  <path d="M 365 212 L 365 256 Q 365 266 355 266 L 270 266 Q 260 266 260 276 L 260 320" fill="none" stroke="#10b981" stroke-width="1.5" marker-end="url(#arrowhead-green)" />
  <!-- Arrows: Verifier -> Verifier Contract -->
  <line x1="515" y1="212" x2="515" y2="320" fill="none" stroke="#10b981" stroke-width="1.5" marker-end="url(#arrowhead-green)" />

  <!-- Arrows: DC -> VS -> VC -->
  <line x1="295" y1="348" x2="315" y2="348" fill="none" stroke="#10b981" stroke-width="1.5" marker-end="url(#arrowhead-green)" />
  <line x1="425" y1="348" x2="470" y2="348" fill="none" stroke="#10b981" stroke-width="1.5" marker-end="url(#arrowhead-green)" />

  <!-- Arrow: Deal Contract -> Platform (Deal Statistics) -->
  <line x1="115" y1="320" x2="115" y2="86" fill="none" stroke="#10b981" stroke-width="1.5" stroke-dasharray="5 3" marker-end="url(#arrowhead-green)" />
  <text x="105" y="203" font-family="Inter, sans-serif" font-size="10" fill="#10b981" transform="rotate(-90, 105, 203)" text-anchor="middle">Deal Stats</text>
</svg>
